<svg id="Layer_1" data-name="Layer 1" xmlns="http://www.w3.org/2000/svg" viewBox="0 0 1000 1000"><defs><style>.cls-1{fill:#5865f1;}.cls-2{fill:#fff;}</style></defs><rect class="cls-1" width="1000" height="1000" rx="127.3"/><path class="cls-2" d="M706.9,310.19A492.44,492.44,0,0,0,585.38,272.5a1.87,1.87,0,0,0-2,.92,342,342,0,0,0-15.13,31.09,454.45,454.45,0,0,0-136.48,0,314.66,314.66,0,0,0-15.37-31.09,1.92,1.92,0,0,0-2-.92A490.57,490.57,0,0,0,293,310.19a1.78,1.78,0,0,0-.8.69C214.77,426.51,193.56,539.31,204,650.69a2,2,0,0,0,.77,1.4,495,495,0,0,0,149.08,75.36,1.92,1.92,0,0,0,2.09-.69,354.93,354.93,0,0,0,30.5-49.61,1.89,1.89,0,0,0-1-2.63,325.62,325.62,0,0,1-46.57-22.2,1.92,1.92,0,0,1-.19-3.18c3.14-2.34,6.26-4.78,9.26-7.24a1.84,1.84,0,0,1,1.92-.26c97.71,44.61,203.49,44.61,300,0a1.83,1.83,0,0,1,1.95.23c3,2.47,6.12,4.93,9.27,7.27a1.91,1.91,0,0,1-.16,3.18,304.77,304.77,0,0,1-46.6,22.17,1.92,1.92,0,0,0-1,2.66,398.13,398.13,0,0,0,30.47,49.58,1.87,1.87,0,0,0,2.09.7c48.78-15.08,98.25-37.85,149.31-75.35a1.87,1.87,0,0,0,.77-1.37c12.44-128.78-20.85-240.64-88.26-339.81A1.52,1.52,0,0,0,706.9,310.19ZM401,582.86c-29.42,0-53.65-27-53.65-60.17s23.77-60.18,53.65-60.18c30.12,0,54.12,27.25,53.65,60.18C454.66,555.85,430.89,582.86,401,582.86Zm198.38,0c-29.42,0-53.65-27-53.65-60.17s23.77-60.18,53.65-60.18c30.12,0,54.12,27.25,53.65,60.18C653,555.85,629.5,582.86,599.38,582.86Z"/></svg>